<?xml version="1.0" encoding="UTF-8" standalone="no"?>
<!-- Created with Inkscape (http://www.inkscape.org/) -->

<svg
   width="180"
   height="180"
   viewBox="0 0 180 180"
   version="1.1"
   id="svg1"
   xml:space="preserve"
   xmlns="http://www.w3.org/2000/svg"
   xmlns:svg="http://www.w3.org/2000/svg"><defs
     id="defs1" /><g
     id="layer1"
     style="display:inline"><path
       id="path2"
       style="display:inline;fill:#ecbe5e;fill-opacity:1;stroke-width:1.68673"
       d="M 89.998369,14.204785 A 82.007779,75.795604 0 0 0 7.9920637,89.998397 82.007779,75.795604 0 0 0 89.998369,165.79522 82.007779,75.795604 0 0 0 172.00794,89.998397 82.007779,75.795604 0 0 0 89.998369,14.204785 Z m 0.136751,23.593703 c 23.59523,0.10445 53.38328,12.908737 53.21325,33.804709 H 109.15032 L 88.468036,54.077086 67.81831,71.603197 l -0.566548,46.558833 41.481798,0.12508 -0.15304,-17.29199 -18.445399,-0.0801 V 80.919454 l 53.457469,-0.04811 0.1107,49.977466 c -19.97568,6.26005 -31.46443,7.93601 -53.568169,8.28684 -20.377734,0.32342 -35.09083,-1.88443 -48.345493,-17.00338 C 27.549688,105.89026 26.926437,82.995238 37.621913,64.448434 47.067868,48.069359 70.515324,37.864704 90.135121,37.798484 Z" /></g></svg>
